<?xml version="1.0" encoding="UTF-8" standalone="no"?>
<!DOCTYPE svg PUBLIC "-//W3C//DTD SVG 1.1//EN"
 "http://www.w3.org/Graphics/SVG/1.1/DTD/svg11.dtd">
<!-- Generated by graphviz version 3.0.0 (20220315.2325)
 -->
<!-- Title: G Pages: 1 -->
<svg width="516pt" height="261pt"
 viewBox="0.00 0.00 516.37 261.00" xmlns="http://www.w3.org/2000/svg" xmlns:xlink="http://www.w3.org/1999/xlink">
<g id="graph0" class="graph" transform="scale(1 1) rotate(0) translate(4 257)">
<title>G</title>
<polygon fill="white" stroke="transparent" points="-4,4 -4,-257 512.37,-257 512.37,4 -4,4"/>
<g id="clust1" class="cluster">
<title>cluster_1</title>
<polygon fill="lightgrey" stroke="lightgrey" points="8,-8 8,-245 91.59,-245 91.59,-8 8,-8"/>
<text text-anchor="middle" x="49.8" y="-229.8" font-family="Times,serif" font-size="14.00">Layer 0</text>
</g>
<g id="clust2" class="cluster">
<title>cluster_2</title>
<polygon fill="lightgrey" stroke="lightgrey" points="111.59,-8 111.59,-245 219.29,-245 219.29,-8 111.59,-8"/>
<text text-anchor="middle" x="165.44" y="-229.8" font-family="Times,serif" font-size="14.00">Layer 1: relu</text>
</g>
<g id="clust3" class="cluster">
<title>cluster_3</title>
<polygon fill="lightgrey" stroke="lightgrey" points="239.29,-8 239.29,-245 351.48,-245 351.48,-8 239.29,-8"/>
<text text-anchor="middle" x="295.38" y="-229.8" font-family="Times,serif" font-size="14.00">Layer 2: relu</text>
</g>
<g id="clust4" class="cluster">
<title>cluster_4</title>
<polygon fill="lightgrey" stroke="lightgrey" points="371.48,-35 371.48,-218 508.37,-218 508.37,-35 371.48,-35"/>
<text text-anchor="middle" x="439.93" y="-202.8" font-family="Times,serif" font-size="14.00">Layer 3: softmax</text>
</g>
<!-- x1 -->
<g id="node1" class="node">
<title>x1</title>
<ellipse fill="none" stroke="black" cx="49.8" cy="-196" rx="27" ry="18"/>
<text text-anchor="middle" x="49.8" y="-192.3" font-family="Times,serif" font-size="14.00">x1</text>
</g>
<!-- node1 -->
<g id="node5" class="node">
<title>node1</title>
<ellipse fill="none" stroke="black" cx="165.44" cy="-196" rx="38.99" ry="18"/>
<text text-anchor="middle" x="165.44" y="-192.3" font-family="Times,serif" font-size="14.00">node1</text>
</g>
<!-- x1&#45;&gt;node1 -->
<g id="edge1" class="edge">
<title>x1&#45;&gt;node1</title>
<path fill="none" stroke="black" d="M76.87,-196C88.57,-196 102.75,-196 116.27,-196"/>
<polygon fill="black" stroke="black" points="116.42,-199.5 126.42,-196 116.42,-192.5 116.42,-199.5"/>
</g>
<!-- node2 -->
<g id="node6" class="node">
<title>node2</title>
<ellipse fill="none" stroke="black" cx="165.44" cy="-142" rx="38.99" ry="18"/>
<text text-anchor="middle" x="165.44" y="-138.3" font-family="Times,serif" font-size="14.00">node2</text>
</g>
<!-- x1&#45;&gt;node2 -->
<g id="edge5" class="edge">
<title>x1&#45;&gt;node2</title>
<path fill="none" stroke="black" d="M72.17,-185.84C88.01,-178.32 109.97,-167.88 128.5,-159.08"/>
<polygon fill="black" stroke="black" points="130.01,-162.23 137.54,-154.78 127.01,-155.91 130.01,-162.23"/>
</g>
<!-- ... -->
<g id="node7" class="node">
<title>...</title>
<ellipse fill="none" stroke="black" cx="165.44" cy="-88" rx="27" ry="18"/>
<text text-anchor="middle" x="165.44" y="-84.3" font-family="Times,serif" font-size="14.00">...</text>
</g>
<!-- x1&#45;&gt;... -->
<g id="edge9" class="edge">
<title>x1&#45;&gt;...</title>
<path fill="none" stroke="black" d="M66.12,-181.43C85.53,-163 119.12,-131.07 141.56,-109.74"/>
<polygon fill="black" stroke="black" points="144.16,-112.11 148.99,-102.68 139.33,-107.03 144.16,-112.11"/>
</g>
<!-- node20 -->
<g id="node8" class="node">
<title>node20</title>
<ellipse fill="none" stroke="black" cx="165.44" cy="-34" rx="44.69" ry="18"/>
<text text-anchor="middle" x="165.44" y="-30.3" font-family="Times,serif" font-size="14.00">node20</text>
</g>
<!-- x1&#45;&gt;node20 -->
<g id="edge13" class="edge">
<title>x1&#45;&gt;node20</title>
<path fill="none" stroke="black" d="M62.11,-179.87C81.8,-151.81 122.52,-93.76 146.23,-59.97"/>
<polygon fill="black" stroke="black" points="149.27,-61.72 152.15,-51.52 143.54,-57.7 149.27,-61.72"/>
</g>
<!-- x2 -->
<g id="node2" class="node">
<title>x2</title>
<ellipse fill="none" stroke="black" cx="49.8" cy="-142" rx="27" ry="18"/>
<text text-anchor="middle" x="49.8" y="-138.3" font-family="Times,serif" font-size="14.00">x2</text>
</g>
<!-- x2&#45;&gt;node1 -->
<g id="edge2" class="edge">
<title>x2&#45;&gt;node1</title>
<path fill="none" stroke="black" d="M72.17,-152.16C88.01,-159.68 109.97,-170.12 128.5,-178.92"/>
<polygon fill="black" stroke="black" points="127.01,-182.09 137.54,-183.22 130.01,-175.77 127.01,-182.09"/>
</g>
<!-- x2&#45;&gt;node2 -->
<g id="edge6" class="edge">
<title>x2&#45;&gt;node2</title>
<path fill="none" stroke="black" d="M76.87,-142C88.57,-142 102.75,-142 116.27,-142"/>
<polygon fill="black" stroke="black" points="116.42,-145.5 126.42,-142 116.42,-138.5 116.42,-145.5"/>
</g>
<!-- x2&#45;&gt;... -->
<g id="edge10" class="edge">
<title>x2&#45;&gt;...</title>
<path fill="none" stroke="black" d="M72.17,-131.84C89.52,-123.6 114.21,-111.87 133.69,-102.61"/>
<polygon fill="black" stroke="black" points="135.24,-105.75 142.77,-98.3 132.24,-99.43 135.24,-105.75"/>
</g>
<!-- x2&#45;&gt;node20 -->
<g id="edge14" class="edge">
<title>x2&#45;&gt;node20</title>
<path fill="none" stroke="black" d="M66.12,-127.43C84.98,-109.51 117.25,-78.84 139.66,-57.55"/>
<polygon fill="black" stroke="black" points="142.29,-59.88 147.13,-50.45 137.47,-54.8 142.29,-59.88"/>
</g>
<!-- .. -->
<g id="node3" class="node">
<title>..</title>
<ellipse fill="none" stroke="black" cx="49.8" cy="-88" rx="27" ry="18"/>
<text text-anchor="middle" x="49.8" y="-84.3" font-family="Times,serif" font-size="14.00">..</text>
</g>
<!-- ..&#45;&gt;node1 -->
<g id="edge3" class="edge">
<title>..&#45;&gt;node1</title>
<path fill="none" stroke="black" d="M66.12,-102.57C85.09,-120.59 117.63,-151.51 140.04,-172.81"/>
<polygon fill="black" stroke="black" points="137.85,-175.56 147.51,-179.91 142.67,-170.48 137.85,-175.56"/>
</g>
<!-- ..&#45;&gt;node2 -->
<g id="edge7" class="edge">
<title>..&#45;&gt;node2</title>
<path fill="none" stroke="black" d="M72.17,-98.16C88.01,-105.68 109.97,-116.12 128.5,-124.92"/>
<polygon fill="black" stroke="black" points="127.01,-128.09 137.54,-129.22 130.01,-121.77 127.01,-128.09"/>
</g>
<!-- ..&#45;&gt;... -->
<g id="edge11" class="edge">
<title>..&#45;&gt;...</title>
<path fill="none" stroke="black" d="M76.87,-88C91.92,-88 111.09,-88 127.66,-88"/>
<polygon fill="black" stroke="black" points="128.1,-91.5 138.1,-88 128.1,-84.5 128.1,-91.5"/>
</g>
<!-- ..&#45;&gt;node20 -->
<g id="edge15" class="edge">
<title>..&#45;&gt;node20</title>
<path fill="none" stroke="black" d="M72.17,-77.84C87.5,-70.56 108.57,-60.55 126.7,-51.93"/>
<polygon fill="black" stroke="black" points="128.33,-55.03 135.86,-47.58 125.33,-48.71 128.33,-55.03"/>
</g>
<!-- x784 -->
<g id="node4" class="node">
<title>x784</title>
<ellipse fill="none" stroke="black" cx="49.8" cy="-34" rx="33.6" ry="18"/>
<text text-anchor="middle" x="49.8" y="-30.3" font-family="Times,serif" font-size="14.00">x784</text>
</g>
<!-- x784&#45;&gt;node1 -->
<g id="edge4" class="edge">
<title>x784&#45;&gt;node1</title>
<path fill="none" stroke="black" d="M62.53,-50.73C82.42,-79.07 122.87,-136.74 146.38,-170.26"/>
<polygon fill="black" stroke="black" points="143.65,-172.46 152.26,-178.63 149.38,-168.44 143.65,-172.46"/>
</g>
<!-- x784&#45;&gt;node2 -->
<g id="edge8" class="edge">
<title>x784&#45;&gt;node2</title>
<path fill="none" stroke="black" d="M67.08,-49.47C86.18,-67.63 118.05,-97.91 140.09,-118.86"/>
<polygon fill="black" stroke="black" points="137.79,-121.5 147.45,-125.85 142.61,-116.42 137.79,-121.5"/>
</g>
<!-- x784&#45;&gt;... -->
<g id="edge12" class="edge">
<title>x784&#45;&gt;...</title>
<path fill="none" stroke="black" d="M75.46,-45.72C92.58,-53.85 115.51,-64.75 133.8,-73.44"/>
<polygon fill="black" stroke="black" points="132.36,-76.63 142.89,-77.76 135.36,-70.31 132.36,-76.63"/>
</g>
<!-- x784&#45;&gt;node20 -->
<g id="edge16" class="edge">
<title>x784&#45;&gt;node20</title>
<path fill="none" stroke="black" d="M83.67,-34C91.95,-34 101.07,-34 110.11,-34"/>
<polygon fill="black" stroke="black" points="110.23,-37.5 120.23,-34 110.23,-30.5 110.23,-37.5"/>
</g>
<!-- node1  -->
<g id="node9" class="node">
<title>node1 </title>
<ellipse fill="none" stroke="black" cx="295.38" cy="-196" rx="42.49" ry="18"/>
<text text-anchor="middle" x="295.38" y="-192.3" font-family="Times,serif" font-size="14.00">node1 </text>
</g>
<!-- node1&#45;&gt;node1  -->
<g id="edge17" class="edge">
<title>node1&#45;&gt;node1 </title>
<path fill="none" stroke="black" d="M204.48,-196C216.45,-196 229.89,-196 242.64,-196"/>
<polygon fill="black" stroke="black" points="242.69,-199.5 252.69,-196 242.69,-192.5 242.69,-199.5"/>
</g>
<!-- node2  -->
<g id="node10" class="node">
<title>node2 </title>
<ellipse fill="none" stroke="black" cx="295.38" cy="-142" rx="42.49" ry="18"/>
<text text-anchor="middle" x="295.38" y="-138.3" font-family="Times,serif" font-size="14.00">node2 </text>
</g>
<!-- node1&#45;&gt;node2  -->
<g id="edge21" class="edge">
<title>node1&#45;&gt;node2 </title>
<path fill="none" stroke="black" d="M194.83,-184.02C212.68,-176.49 235.93,-166.67 255.48,-158.42"/>
<polygon fill="black" stroke="black" points="256.88,-161.63 264.73,-154.51 254.16,-155.18 256.88,-161.63"/>
</g>
<!-- ...  -->
<g id="node11" class="node">
<title>... </title>
<ellipse fill="none" stroke="black" cx="295.38" cy="-88" rx="27" ry="18"/>
<text text-anchor="middle" x="295.38" y="-84.3" font-family="Times,serif" font-size="14.00">... </text>
</g>
<!-- node1&#45;&gt;...  -->
<g id="edge25" class="edge">
<title>node1&#45;&gt;... </title>
<path fill="none" stroke="black" d="M185.04,-180.3C207.46,-161.37 245.19,-129.53 269.94,-108.64"/>
<polygon fill="black" stroke="black" points="272.41,-111.13 277.79,-102 267.89,-105.78 272.41,-111.13"/>
</g>
<!-- node30  -->
<g id="node12" class="node">
<title>node30 </title>
<ellipse fill="none" stroke="black" cx="295.38" cy="-34" rx="48.19" ry="18"/>
<text text-anchor="middle" x="295.38" y="-30.3" font-family="Times,serif" font-size="14.00">node30 </text>
</g>
<!-- node1&#45;&gt;node30  -->
<g id="edge29" class="edge">
<title>node1&#45;&gt;node30 </title>
<path fill="none" stroke="black" d="M179.89,-178.97C202.48,-150.36 248.16,-92.53 274.48,-59.2"/>
<polygon fill="black" stroke="black" points="277.28,-61.31 280.73,-51.29 271.78,-56.97 277.28,-61.31"/>
</g>
<!-- node2&#45;&gt;node1  -->
<g id="edge18" class="edge">
<title>node2&#45;&gt;node1 </title>
<path fill="none" stroke="black" d="M194.83,-153.98C212.68,-161.51 235.93,-171.33 255.48,-179.58"/>
<polygon fill="black" stroke="black" points="254.16,-182.82 264.73,-183.49 256.88,-176.37 254.16,-182.82"/>
</g>
<!-- node2&#45;&gt;node2  -->
<g id="edge22" class="edge">
<title>node2&#45;&gt;node2 </title>
<path fill="none" stroke="black" d="M204.48,-142C216.45,-142 229.89,-142 242.64,-142"/>
<polygon fill="black" stroke="black" points="242.69,-145.5 252.69,-142 242.69,-138.5 242.69,-145.5"/>
</g>
<!-- node2&#45;&gt;...  -->
<g id="edge26" class="edge">
<title>node2&#45;&gt;... </title>
<path fill="none" stroke="black" d="M194.83,-130.02C214.92,-121.54 241.86,-110.17 262.65,-101.39"/>
<polygon fill="black" stroke="black" points="264.16,-104.55 272.01,-97.44 261.44,-98.1 264.16,-104.55"/>
</g>
<!-- node2&#45;&gt;node30  -->
<g id="edge30" class="edge">
<title>node2&#45;&gt;node30 </title>
<path fill="none" stroke="black" d="M185.04,-126.3C206.59,-108.11 242.28,-77.98 266.99,-57.12"/>
<polygon fill="black" stroke="black" points="269.53,-59.56 274.92,-50.43 265.02,-54.21 269.53,-59.56"/>
</g>
<!-- ...&#45;&gt;node1  -->
<g id="edge19" class="edge">
<title>...&#45;&gt;node1 </title>
<path fill="none" stroke="black" d="M182.9,-101.9C204.34,-119.99 242.08,-151.85 267.65,-173.43"/>
<polygon fill="black" stroke="black" points="265.59,-176.27 275.49,-180.05 270.1,-170.92 265.59,-176.27"/>
</g>
<!-- ...&#45;&gt;node2  -->
<g id="edge23" class="edge">
<title>...&#45;&gt;node2 </title>
<path fill="none" stroke="black" d="M188.73,-97.41C207.06,-105.14 233.49,-116.3 255.33,-125.52"/>
<polygon fill="black" stroke="black" points="254.1,-128.8 264.68,-129.46 256.83,-122.35 254.1,-128.8"/>
</g>
<!-- ...&#45;&gt;...  -->
<g id="edge27" class="edge">
<title>...&#45;&gt;... </title>
<path fill="none" stroke="black" d="M192.64,-88C211.53,-88 237.26,-88 258.12,-88"/>
<polygon fill="black" stroke="black" points="258.22,-91.5 268.22,-88 258.22,-84.5 258.22,-91.5"/>
</g>
<!-- ...&#45;&gt;node30  -->
<g id="edge31" class="edge">
<title>...&#45;&gt;node30 </title>
<path fill="none" stroke="black" d="M188.73,-78.59C206.56,-71.07 232.06,-60.31 253.53,-51.24"/>
<polygon fill="black" stroke="black" points="254.91,-54.46 262.77,-47.34 252.19,-48.01 254.91,-54.46"/>
</g>
<!-- node20&#45;&gt;node1  -->
<g id="edge20" class="edge">
<title>node20&#45;&gt;node1 </title>
<path fill="none" stroke="black" d="M180.13,-51.34C202.83,-80.08 248.36,-137.72 274.57,-170.91"/>
<polygon fill="black" stroke="black" points="271.84,-173.11 280.79,-178.79 277.34,-168.77 271.84,-173.11"/>
</g>
<!-- node20&#45;&gt;node2  -->
<g id="edge24" class="edge">
<title>node20&#45;&gt;node2 </title>
<path fill="none" stroke="black" d="M185.59,-50.17C207.39,-68.57 243.13,-98.74 267.66,-119.44"/>
<polygon fill="black" stroke="black" points="265.62,-122.3 275.51,-126.07 270.13,-116.95 265.62,-122.3"/>
</g>
<!-- node20&#45;&gt;...  -->
<g id="edge28" class="edge">
<title>node20&#45;&gt;... </title>
<path fill="none" stroke="black" d="M197.09,-46.93C216.91,-55.3 242.65,-66.17 262.68,-74.62"/>
<polygon fill="black" stroke="black" points="261.43,-77.89 272,-78.55 264.15,-71.44 261.43,-77.89"/>
</g>
<!-- node20&#45;&gt;node30  -->
<g id="edge32" class="edge">
<title>node20&#45;&gt;node30 </title>
<path fill="none" stroke="black" d="M210.47,-34C219.08,-34 228.23,-34 237.2,-34"/>
<polygon fill="black" stroke="black" points="237.21,-37.5 247.21,-34 237.21,-30.5 237.21,-37.5"/>
</g>
<!-- y10 -->
<g id="node13" class="node">
<title>y10</title>
<ellipse fill="none" stroke="black" cx="439.43" cy="-61" rx="27.9" ry="18"/>
<text text-anchor="middle" x="439.43" y="-57.3" font-family="Times,serif" font-size="14.00">y10</text>
</g>
<!-- node1 &#45;&gt;y10 -->
<g id="edge33" class="edge">
<title>node1 &#45;&gt;y10</title>
<path fill="none" stroke="black" d="M313.52,-179.72C339.01,-155.49 386.98,-109.89 415.48,-82.81"/>
<polygon fill="black" stroke="black" points="418.13,-85.12 422.97,-75.69 413.31,-80.04 418.13,-85.12"/>
</g>
<!-- y1 -->
<g id="node14" class="node">
<title>y1</title>
<ellipse fill="none" stroke="black" cx="439.43" cy="-169" rx="27" ry="18"/>
<text text-anchor="middle" x="439.43" y="-165.3" font-family="Times,serif" font-size="14.00">y1</text>
</g>
<!-- node1 &#45;&gt;y1 -->
<g id="edge37" class="edge">
<title>node1 &#45;&gt;y1</title>
<path fill="none" stroke="black" d="M334.45,-188.76C355.82,-184.7 382.31,-179.67 403.2,-175.7"/>
<polygon fill="black" stroke="black" points="404.09,-179.09 413.26,-173.78 402.78,-172.21 404.09,-179.09"/>
</g>
<!-- . -->
<g id="node15" class="node">
<title>.</title>
<ellipse fill="none" stroke="black" cx="439.43" cy="-115" rx="27" ry="18"/>
<text text-anchor="middle" x="439.43" y="-111.3" font-family="Times,serif" font-size="14.00">.</text>
</g>
<!-- node1 &#45;&gt;. -->
<g id="edge41" class="edge">
<title>node1 &#45;&gt;.</title>
<path fill="none" stroke="black" d="M321.45,-181.71C345.99,-167.71 383.37,-146.4 409.23,-131.65"/>
<polygon fill="black" stroke="black" points="411.25,-134.53 418.2,-126.53 407.78,-128.45 411.25,-134.53"/>
</g>
<!-- node2 &#45;&gt;y10 -->
<g id="edge34" class="edge">
<title>node2 &#45;&gt;y10</title>
<path fill="none" stroke="black" d="M321.45,-127.71C345.85,-113.79 382.93,-92.64 408.78,-77.9"/>
<polygon fill="black" stroke="black" points="410.8,-80.78 417.76,-72.79 407.34,-74.7 410.8,-80.78"/>
</g>
<!-- node2 &#45;&gt;y1 -->
<g id="edge38" class="edge">
<title>node2 &#45;&gt;y1</title>
<path fill="none" stroke="black" d="M334.45,-149.24C355.82,-153.3 382.31,-158.33 403.2,-162.3"/>
<polygon fill="black" stroke="black" points="402.78,-165.79 413.26,-164.22 404.09,-158.91 402.78,-165.79"/>
</g>
<!-- node2 &#45;&gt;. -->
<g id="edge42" class="edge">
<title>node2 &#45;&gt;.</title>
<path fill="none" stroke="black" d="M334.45,-134.76C355.82,-130.7 382.31,-125.67 403.2,-121.7"/>
<polygon fill="black" stroke="black" points="404.09,-125.09 413.26,-119.78 402.78,-118.21 404.09,-125.09"/>
</g>
<!-- ... &#45;&gt;y10 -->
<g id="edge35" class="edge">
<title>... &#45;&gt;y10</title>
<path fill="none" stroke="black" d="M321.45,-83.24C343.85,-78.98 376.94,-72.69 402.21,-67.88"/>
<polygon fill="black" stroke="black" points="402.99,-71.3 412.17,-65.99 401.69,-64.42 402.99,-71.3"/>
</g>
<!-- ... &#45;&gt;y1 -->
<g id="edge39" class="edge">
<title>... &#45;&gt;y1</title>
<path fill="none" stroke="black" d="M316.43,-99.43C340.75,-113.3 381.93,-136.79 409.64,-152.59"/>
<polygon fill="black" stroke="black" points="408.06,-155.71 418.48,-157.62 411.52,-149.63 408.06,-155.71"/>
</g>
<!-- ... &#45;&gt;. -->
<g id="edge43" class="edge">
<title>... &#45;&gt;.</title>
<path fill="none" stroke="black" d="M321.45,-92.76C344.13,-97.08 377.77,-103.47 403.16,-108.3"/>
<polygon fill="black" stroke="black" points="402.65,-111.76 413.13,-110.19 403.96,-104.89 402.65,-111.76"/>
</g>
<!-- node30 &#45;&gt;y10 -->
<g id="edge36" class="edge">
<title>node30 &#45;&gt;y10</title>
<path fill="none" stroke="black" d="M338.61,-42.03C358.86,-45.88 382.85,-50.44 402.24,-54.12"/>
<polygon fill="black" stroke="black" points="401.73,-57.59 412.2,-56.02 403.03,-50.71 401.73,-57.59"/>
</g>
<!-- node30 &#45;&gt;y1 -->
<g id="edge40" class="edge">
<title>node30 &#45;&gt;y1</title>
<path fill="none" stroke="black" d="M314.08,-50.82C339.78,-75.25 387.42,-120.52 415.69,-147.39"/>
<polygon fill="black" stroke="black" points="413.45,-150.09 423.11,-154.44 418.27,-145.02 413.45,-150.09"/>
</g>
<!-- node30 &#45;&gt;. -->
<g id="edge44" class="edge">
<title>node30 &#45;&gt;.</title>
<path fill="none" stroke="black" d="M322.77,-49.05C347.35,-63.06 383.92,-83.92 409.34,-98.41"/>
<polygon fill="black" stroke="black" points="407.73,-101.53 418.15,-103.44 411.2,-95.45 407.73,-101.53"/>
</g>
</g>
</svg>
