<?xml version="1.0" encoding="UTF-8" standalone="no"?>
<!DOCTYPE svg PUBLIC "-//W3C//DTD SVG 1.1//EN"
 "http://www.w3.org/Graphics/SVG/1.1/DTD/svg11.dtd">
<!-- Generated by graphviz version 3.0.0 (20220315.2325)
 -->
<!-- Title: G Pages: 1 -->
<svg width="557pt" height="261pt"
 viewBox="0.00 0.00 557.27 261.00" xmlns="http://www.w3.org/2000/svg" xmlns:xlink="http://www.w3.org/1999/xlink">
<g id="graph0" class="graph" transform="scale(1 1) rotate(0) translate(4 257)">
<title>G</title>
<polygon fill="white" stroke="transparent" points="-4,4 -4,-257 553.27,-257 553.27,4 -4,4"/>
<g id="clust1" class="cluster">
<title>cluster_1</title>
<polygon fill="lightgrey" stroke="lightgrey" points="8,-8 8,-245 91.59,-245 91.59,-8 8,-8"/>
<text text-anchor="middle" x="49.8" y="-229.8" font-family="Times,serif" font-size="14.00">Layer 0</text>
</g>
<g id="clust2" class="cluster">
<title>cluster_2</title>
<polygon fill="lightgrey" stroke="lightgrey" points="111.59,-8 111.59,-245 228.99,-245 228.99,-8 111.59,-8"/>
<text text-anchor="middle" x="170.29" y="-229.8" font-family="Times,serif" font-size="14.00">Layer 1: relu</text>
</g>
<g id="clust3" class="cluster">
<title>cluster_3</title>
<polygon fill="lightgrey" stroke="lightgrey" points="248.99,-8 248.99,-245 392.37,-245 392.37,-8 248.99,-8"/>
<text text-anchor="middle" x="320.68" y="-229.8" font-family="Times,serif" font-size="14.00">Layer 2: relu</text>
</g>
<g id="clust4" class="cluster">
<title>cluster_4</title>
<polygon fill="lightgrey" stroke="lightgrey" points="412.37,-35 412.37,-218 549.27,-218 549.27,-35 412.37,-35"/>
<text text-anchor="middle" x="480.82" y="-202.8" font-family="Times,serif" font-size="14.00">Layer 3: softmax</text>
</g>
<!-- x1 -->
<g id="node1" class="node">
<title>x1</title>
<ellipse fill="none" stroke="black" cx="49.8" cy="-196" rx="27" ry="18"/>
<text text-anchor="middle" x="49.8" y="-192.3" font-family="Times,serif" font-size="14.00">x1</text>
</g>
<!-- node1 -->
<g id="node5" class="node">
<title>node1</title>
<ellipse fill="none" stroke="black" cx="170.29" cy="-196" rx="38.99" ry="18"/>
<text text-anchor="middle" x="170.29" y="-192.3" font-family="Times,serif" font-size="14.00">node1</text>
</g>
<!-- x1&#45;&gt;node1 -->
<g id="edge1" class="edge">
<title>x1&#45;&gt;node1</title>
<path fill="none" stroke="black" d="M76.8,-196C89.75,-196 105.84,-196 120.95,-196"/>
<polygon fill="black" stroke="black" points="121.2,-199.5 131.2,-196 121.2,-192.5 121.2,-199.5"/>
</g>
<!-- node2 -->
<g id="node6" class="node">
<title>node2</title>
<ellipse fill="none" stroke="black" cx="170.29" cy="-142" rx="38.99" ry="18"/>
<text text-anchor="middle" x="170.29" y="-138.3" font-family="Times,serif" font-size="14.00">node2</text>
</g>
<!-- x1&#45;&gt;node2 -->
<g id="edge5" class="edge">
<title>x1&#45;&gt;node2</title>
<path fill="none" stroke="black" d="M72.53,-186.1C89.3,-178.46 112.87,-167.71 132.55,-158.74"/>
<polygon fill="black" stroke="black" points="134.21,-161.84 141.85,-154.5 131.3,-155.47 134.21,-161.84"/>
</g>
<!-- ... -->
<g id="node7" class="node">
<title>...</title>
<ellipse fill="none" stroke="black" cx="170.29" cy="-88" rx="27" ry="18"/>
<text text-anchor="middle" x="170.29" y="-84.3" font-family="Times,serif" font-size="14.00">...</text>
</g>
<!-- x1&#45;&gt;... -->
<g id="edge9" class="edge">
<title>x1&#45;&gt;...</title>
<path fill="none" stroke="black" d="M66.78,-181.43C87.21,-162.81 122.74,-130.43 146.13,-109.11"/>
<polygon fill="black" stroke="black" points="148.53,-111.66 153.56,-102.33 143.81,-106.48 148.53,-111.66"/>
</g>
<!-- node500 -->
<g id="node8" class="node">
<title>node500</title>
<ellipse fill="none" stroke="black" cx="170.29" cy="-34" rx="50.89" ry="18"/>
<text text-anchor="middle" x="170.29" y="-30.3" font-family="Times,serif" font-size="14.00">node500</text>
</g>
<!-- x1&#45;&gt;node500 -->
<g id="edge13" class="edge">
<title>x1&#45;&gt;node500</title>
<path fill="none" stroke="black" d="M62.59,-179.87C83.12,-151.81 125.58,-93.76 150.3,-59.97"/>
<polygon fill="black" stroke="black" points="153.39,-61.66 156.47,-51.52 147.74,-57.53 153.39,-61.66"/>
</g>
<!-- x2 -->
<g id="node2" class="node">
<title>x2</title>
<ellipse fill="none" stroke="black" cx="49.8" cy="-142" rx="27" ry="18"/>
<text text-anchor="middle" x="49.8" y="-138.3" font-family="Times,serif" font-size="14.00">x2</text>
</g>
<!-- x2&#45;&gt;node1 -->
<g id="edge2" class="edge">
<title>x2&#45;&gt;node1</title>
<path fill="none" stroke="black" d="M72.53,-151.9C89.3,-159.54 112.87,-170.29 132.55,-179.26"/>
<polygon fill="black" stroke="black" points="131.3,-182.53 141.85,-183.5 134.21,-176.16 131.3,-182.53"/>
</g>
<!-- x2&#45;&gt;node2 -->
<g id="edge6" class="edge">
<title>x2&#45;&gt;node2</title>
<path fill="none" stroke="black" d="M76.8,-142C89.75,-142 105.84,-142 120.95,-142"/>
<polygon fill="black" stroke="black" points="121.2,-145.5 131.2,-142 121.2,-138.5 121.2,-145.5"/>
</g>
<!-- x2&#45;&gt;... -->
<g id="edge10" class="edge">
<title>x2&#45;&gt;...</title>
<path fill="none" stroke="black" d="M72.53,-132.1C90.87,-123.74 117.36,-111.66 137.99,-102.26"/>
<polygon fill="black" stroke="black" points="139.64,-105.36 147.29,-98.02 136.74,-98.99 139.64,-105.36"/>
</g>
<!-- x2&#45;&gt;node500 -->
<g id="edge14" class="edge">
<title>x2&#45;&gt;node500</title>
<path fill="none" stroke="black" d="M66.78,-127.43C86.41,-109.54 120,-78.93 143.35,-57.64"/>
<polygon fill="black" stroke="black" points="145.81,-60.14 150.84,-50.81 141.09,-54.96 145.81,-60.14"/>
</g>
<!-- .. -->
<g id="node3" class="node">
<title>..</title>
<ellipse fill="none" stroke="black" cx="49.8" cy="-88" rx="27" ry="18"/>
<text text-anchor="middle" x="49.8" y="-84.3" font-family="Times,serif" font-size="14.00">..</text>
</g>
<!-- ..&#45;&gt;node1 -->
<g id="edge3" class="edge">
<title>..&#45;&gt;node1</title>
<path fill="none" stroke="black" d="M66.78,-102.57C86.64,-120.67 120.77,-151.78 144.15,-173.09"/>
<polygon fill="black" stroke="black" points="141.89,-175.76 151.64,-179.91 146.6,-170.59 141.89,-175.76"/>
</g>
<!-- ..&#45;&gt;node2 -->
<g id="edge7" class="edge">
<title>..&#45;&gt;node2</title>
<path fill="none" stroke="black" d="M72.53,-97.9C89.3,-105.54 112.87,-116.29 132.55,-125.26"/>
<polygon fill="black" stroke="black" points="131.3,-128.53 141.85,-129.5 134.21,-122.16 131.3,-128.53"/>
</g>
<!-- ..&#45;&gt;... -->
<g id="edge11" class="edge">
<title>..&#45;&gt;...</title>
<path fill="none" stroke="black" d="M76.8,-88C93.2,-88 114.63,-88 132.73,-88"/>
<polygon fill="black" stroke="black" points="132.94,-91.5 142.94,-88 132.94,-84.5 132.94,-91.5"/>
</g>
<!-- ..&#45;&gt;node500 -->
<g id="edge15" class="edge">
<title>..&#45;&gt;node500</title>
<path fill="none" stroke="black" d="M72.53,-78.1C88.31,-70.91 110.11,-60.97 129.02,-52.35"/>
<polygon fill="black" stroke="black" points="130.67,-55.44 138.32,-48.11 127.77,-49.08 130.67,-55.44"/>
</g>
<!-- x784 -->
<g id="node4" class="node">
<title>x784</title>
<ellipse fill="none" stroke="black" cx="49.8" cy="-34" rx="33.6" ry="18"/>
<text text-anchor="middle" x="49.8" y="-30.3" font-family="Times,serif" font-size="14.00">x784</text>
</g>
<!-- x784&#45;&gt;node1 -->
<g id="edge4" class="edge">
<title>x784&#45;&gt;node1</title>
<path fill="none" stroke="black" d="M63.03,-50.73C83.77,-79.07 125.94,-136.74 150.46,-170.26"/>
<polygon fill="black" stroke="black" points="147.86,-172.63 156.59,-178.63 153.51,-168.49 147.86,-172.63"/>
</g>
<!-- x784&#45;&gt;node2 -->
<g id="edge8" class="edge">
<title>x784&#45;&gt;node2</title>
<path fill="none" stroke="black" d="M67.77,-49.47C87.69,-67.63 120.92,-97.91 143.9,-118.86"/>
<polygon fill="black" stroke="black" points="141.82,-121.7 151.57,-125.85 146.54,-116.53 141.82,-121.7"/>
</g>
<!-- x784&#45;&gt;... -->
<g id="edge12" class="edge">
<title>x784&#45;&gt;...</title>
<path fill="none" stroke="black" d="M75.93,-45.45C94.06,-53.72 118.66,-64.93 138.05,-73.77"/>
<polygon fill="black" stroke="black" points="136.83,-77.05 147.38,-78.02 139.74,-70.69 136.83,-77.05"/>
</g>
<!-- x784&#45;&gt;node500 -->
<g id="edge16" class="edge">
<title>x784&#45;&gt;node500</title>
<path fill="none" stroke="black" d="M83.8,-34C91.68,-34 100.33,-34 109.01,-34"/>
<polygon fill="black" stroke="black" points="109.17,-37.5 119.17,-34 109.17,-30.5 109.17,-37.5"/>
</g>
<!-- node1(2) -->
<g id="node9" class="node">
<title>node1(2)</title>
<ellipse fill="none" stroke="black" cx="320.68" cy="-196" rx="51.99" ry="18"/>
<text text-anchor="middle" x="320.68" y="-192.3" font-family="Times,serif" font-size="14.00">node1(2)</text>
</g>
<!-- node1&#45;&gt;node1(2) -->
<g id="edge17" class="edge">
<title>node1&#45;&gt;node1(2)</title>
<path fill="none" stroke="black" d="M209.5,-196C224.37,-196 241.77,-196 258.3,-196"/>
<polygon fill="black" stroke="black" points="258.45,-199.5 268.45,-196 258.45,-192.5 258.45,-199.5"/>
</g>
<!-- node2(2) -->
<g id="node10" class="node">
<title>node2(2)</title>
<ellipse fill="none" stroke="black" cx="320.68" cy="-142" rx="51.99" ry="18"/>
<text text-anchor="middle" x="320.68" y="-138.3" font-family="Times,serif" font-size="14.00">node2(2)</text>
</g>
<!-- node1&#45;&gt;node2(2) -->
<g id="edge21" class="edge">
<title>node1&#45;&gt;node2(2)</title>
<path fill="none" stroke="black" d="M201.32,-185.07C222.38,-177.41 250.91,-167.02 274.69,-158.37"/>
<polygon fill="black" stroke="black" points="276.01,-161.62 284.21,-154.91 273.62,-155.04 276.01,-161.62"/>
</g>
<!-- .... -->
<g id="node11" class="node">
<title>....</title>
<ellipse fill="none" stroke="black" cx="320.68" cy="-88" rx="27" ry="18"/>
<text text-anchor="middle" x="320.68" y="-84.3" font-family="Times,serif" font-size="14.00">....</text>
</g>
<!-- node1&#45;&gt;.... -->
<g id="edge25" class="edge">
<title>node1&#45;&gt;....</title>
<path fill="none" stroke="black" d="M191.92,-180.98C218.34,-161.76 264.14,-128.42 293.13,-107.32"/>
<polygon fill="black" stroke="black" points="295.52,-109.91 301.55,-101.2 291.4,-104.25 295.52,-109.91"/>
</g>
<!-- node500(2) -->
<g id="node12" class="node">
<title>node500(2)</title>
<ellipse fill="none" stroke="black" cx="320.68" cy="-34" rx="63.89" ry="18"/>
<text text-anchor="middle" x="320.68" y="-30.3" font-family="Times,serif" font-size="14.00">node500(2)</text>
</g>
<!-- node1&#45;&gt;node500(2) -->
<g id="edge29" class="edge">
<title>node1&#45;&gt;node500(2)</title>
<path fill="none" stroke="black" d="M186.33,-179.58C212.39,-151.13 266.07,-92.53 296.78,-59"/>
<polygon fill="black" stroke="black" points="299.53,-61.18 303.7,-51.45 294.36,-56.46 299.53,-61.18"/>
</g>
<!-- node2&#45;&gt;node1(2) -->
<g id="edge18" class="edge">
<title>node2&#45;&gt;node1(2)</title>
<path fill="none" stroke="black" d="M201.32,-152.93C222.38,-160.59 250.91,-170.98 274.69,-179.63"/>
<polygon fill="black" stroke="black" points="273.62,-182.96 284.21,-183.09 276.01,-176.38 273.62,-182.96"/>
</g>
<!-- node2&#45;&gt;node2(2) -->
<g id="edge22" class="edge">
<title>node2&#45;&gt;node2(2)</title>
<path fill="none" stroke="black" d="M209.5,-142C224.37,-142 241.77,-142 258.3,-142"/>
<polygon fill="black" stroke="black" points="258.45,-145.5 268.45,-142 258.45,-138.5 258.45,-145.5"/>
</g>
<!-- node2&#45;&gt;.... -->
<g id="edge26" class="edge">
<title>node2&#45;&gt;....</title>
<path fill="none" stroke="black" d="M201.32,-131.07C226.14,-122.04 261.33,-109.23 286.88,-99.93"/>
<polygon fill="black" stroke="black" points="288.3,-103.14 296.5,-96.43 285.91,-96.56 288.3,-103.14"/>
</g>
<!-- node2&#45;&gt;node500(2) -->
<g id="edge30" class="edge">
<title>node2&#45;&gt;node500(2)</title>
<path fill="none" stroke="black" d="M191.92,-126.98C216.86,-108.84 259.07,-78.11 288.11,-56.98"/>
<polygon fill="black" stroke="black" points="290.26,-59.74 296.29,-51.02 286.14,-54.08 290.26,-59.74"/>
</g>
<!-- ...&#45;&gt;node1(2) -->
<g id="edge19" class="edge">
<title>...&#45;&gt;node1(2)</title>
<path fill="none" stroke="black" d="M189.19,-101.03C213.88,-119 258.77,-151.67 288.9,-173.6"/>
<polygon fill="black" stroke="black" points="287.22,-176.7 297.36,-179.76 291.34,-171.04 287.22,-176.7"/>
</g>
<!-- ...&#45;&gt;node2(2) -->
<g id="edge23" class="edge">
<title>...&#45;&gt;node2(2)</title>
<path fill="none" stroke="black" d="M194.48,-96.44C215.89,-104.23 248.3,-116.02 274.78,-125.66"/>
<polygon fill="black" stroke="black" points="273.64,-128.97 284.23,-129.1 276.03,-122.39 273.64,-128.97"/>
</g>
<!-- ...&#45;&gt;.... -->
<g id="edge27" class="edge">
<title>...&#45;&gt;....</title>
<path fill="none" stroke="black" d="M197.48,-88C221.28,-88 256.62,-88 283.19,-88"/>
<polygon fill="black" stroke="black" points="283.25,-91.5 293.25,-88 283.25,-84.5 283.25,-91.5"/>
</g>
<!-- ...&#45;&gt;node500(2) -->
<g id="edge31" class="edge">
<title>...&#45;&gt;node500(2)</title>
<path fill="none" stroke="black" d="M194.48,-79.56C214.93,-72.12 245.41,-61.03 271.18,-51.65"/>
<polygon fill="black" stroke="black" points="272.59,-54.86 280.79,-48.15 270.19,-48.28 272.59,-54.86"/>
</g>
<!-- node500&#45;&gt;node1(2) -->
<g id="edge20" class="edge">
<title>node500&#45;&gt;node1(2)</title>
<path fill="none" stroke="black" d="M186.89,-51.03C213.2,-79.76 266.52,-137.97 296.98,-171.22"/>
<polygon fill="black" stroke="black" points="294.51,-173.7 303.84,-178.71 299.67,-168.97 294.51,-173.7"/>
</g>
<!-- node500&#45;&gt;node2(2) -->
<g id="edge24" class="edge">
<title>node500&#45;&gt;node2(2)</title>
<path fill="none" stroke="black" d="M193.5,-50.17C218.86,-68.62 260.48,-98.91 288.94,-119.62"/>
<polygon fill="black" stroke="black" points="287.17,-122.67 297.31,-125.72 291.29,-117.01 287.17,-122.67"/>
</g>
<!-- node500&#45;&gt;.... -->
<g id="edge28" class="edge">
<title>node500&#45;&gt;....</title>
<path fill="none" stroke="black" d="M206.46,-46.8C230.75,-55.64 262.86,-67.32 286.67,-75.99"/>
<polygon fill="black" stroke="black" points="285.73,-79.37 296.33,-79.5 288.12,-72.79 285.73,-79.37"/>
</g>
<!-- node500&#45;&gt;node500(2) -->
<g id="edge32" class="edge">
<title>node500&#45;&gt;node500(2)</title>
<path fill="none" stroke="black" d="M221.11,-34C229.34,-34 238.02,-34 246.68,-34"/>
<polygon fill="black" stroke="black" points="246.81,-37.5 256.81,-34 246.81,-30.5 246.81,-37.5"/>
</g>
<!-- y10 -->
<g id="node13" class="node">
<title>y10</title>
<ellipse fill="none" stroke="black" cx="480.32" cy="-61" rx="27.9" ry="18"/>
<text text-anchor="middle" x="480.32" y="-57.3" font-family="Times,serif" font-size="14.00">y10</text>
</g>
<!-- node1(2)&#45;&gt;y10 -->
<g id="edge33" class="edge">
<title>node1(2)&#45;&gt;y10</title>
<path fill="none" stroke="black" d="M341.33,-179.18C370.12,-154.52 423.73,-108.61 454.98,-81.84"/>
<polygon fill="black" stroke="black" points="457.47,-84.32 462.79,-75.16 452.92,-79 457.47,-84.32"/>
</g>
<!-- y1 -->
<g id="node14" class="node">
<title>y1</title>
<ellipse fill="none" stroke="black" cx="480.32" cy="-169" rx="27" ry="18"/>
<text text-anchor="middle" x="480.32" y="-165.3" font-family="Times,serif" font-size="14.00">y1</text>
</g>
<!-- node1(2)&#45;&gt;y1 -->
<g id="edge37" class="edge">
<title>node1(2)&#45;&gt;y1</title>
<path fill="none" stroke="black" d="M367.7,-188.12C392.02,-183.95 421.41,-178.92 443.93,-175.06"/>
<polygon fill="black" stroke="black" points="444.8,-178.46 454.06,-173.33 443.62,-171.56 444.8,-178.46"/>
</g>
<!-- . -->
<g id="node15" class="node">
<title>.</title>
<ellipse fill="none" stroke="black" cx="480.32" cy="-115" rx="27" ry="18"/>
<text text-anchor="middle" x="480.32" y="-111.3" font-family="Times,serif" font-size="14.00">.</text>
</g>
<!-- node1(2)&#45;&gt;. -->
<g id="edge41" class="edge">
<title>node1(2)&#45;&gt;.</title>
<path fill="none" stroke="black" d="M350.59,-181.14C378.54,-166.78 420.72,-145.11 449.1,-130.53"/>
<polygon fill="black" stroke="black" points="450.86,-133.56 458.16,-125.87 447.66,-127.33 450.86,-133.56"/>
</g>
<!-- node2(2)&#45;&gt;y10 -->
<g id="edge34" class="edge">
<title>node2(2)&#45;&gt;y10</title>
<path fill="none" stroke="black" d="M350.59,-127.14C378.38,-112.86 420.24,-91.36 448.61,-76.78"/>
<polygon fill="black" stroke="black" points="450.39,-79.8 457.68,-72.12 447.19,-73.58 450.39,-79.8"/>
</g>
<!-- node2(2)&#45;&gt;y1 -->
<g id="edge38" class="edge">
<title>node2(2)&#45;&gt;y1</title>
<path fill="none" stroke="black" d="M367.7,-149.88C392.02,-154.05 421.41,-159.08 443.93,-162.94"/>
<polygon fill="black" stroke="black" points="443.62,-166.44 454.06,-164.67 444.8,-159.54 443.62,-166.44"/>
</g>
<!-- node2(2)&#45;&gt;. -->
<g id="edge42" class="edge">
<title>node2(2)&#45;&gt;.</title>
<path fill="none" stroke="black" d="M367.7,-134.12C392.02,-129.95 421.41,-124.92 443.93,-121.06"/>
<polygon fill="black" stroke="black" points="444.8,-124.46 454.06,-119.33 443.62,-117.56 444.8,-124.46"/>
</g>
<!-- ....&#45;&gt;y10 -->
<g id="edge35" class="edge">
<title>....&#45;&gt;y10</title>
<path fill="none" stroke="black" d="M347.01,-83.66C373.01,-79.21 413.72,-72.24 443.12,-67.2"/>
<polygon fill="black" stroke="black" points="443.74,-70.65 453,-65.51 442.56,-63.75 443.74,-70.65"/>
</g>
<!-- ....&#45;&gt;y1 -->
<g id="edge39" class="edge">
<title>....&#45;&gt;y1</title>
<path fill="none" stroke="black" d="M342.61,-98.76C369.94,-112.8 417.95,-137.46 449.19,-153.52"/>
<polygon fill="black" stroke="black" points="447.81,-156.74 458.3,-158.2 451.01,-150.52 447.81,-156.74"/>
</g>
<!-- ....&#45;&gt;. -->
<g id="edge43" class="edge">
<title>....&#45;&gt;.</title>
<path fill="none" stroke="black" d="M347.01,-92.34C373.32,-96.85 414.7,-103.93 444.17,-108.98"/>
<polygon fill="black" stroke="black" points="443.61,-112.43 454.06,-110.67 444.79,-105.53 443.61,-112.43"/>
</g>
<!-- node500(2)&#45;&gt;y10 -->
<g id="edge36" class="edge">
<title>node500(2)&#45;&gt;y10</title>
<path fill="none" stroke="black" d="M375.49,-43.22C397.82,-47.04 423.14,-51.38 443.18,-54.81"/>
<polygon fill="black" stroke="black" points="442.69,-58.28 453.14,-56.52 443.88,-51.38 442.69,-58.28"/>
</g>
<!-- node500(2)&#45;&gt;y1 -->
<g id="edge40" class="edge">
<title>node500(2)&#45;&gt;y1</title>
<path fill="none" stroke="black" d="M341.64,-51.1C370.55,-75.85 423.97,-121.6 455.09,-148.25"/>
<polygon fill="black" stroke="black" points="452.99,-151.06 462.86,-154.91 457.55,-145.74 452.99,-151.06"/>
</g>
<!-- node500(2)&#45;&gt;. -->
<g id="edge44" class="edge">
<title>node500(2)&#45;&gt;.</title>
<path fill="none" stroke="black" d="M352.45,-49.81C380.34,-64.14 421.22,-85.14 448.98,-99.41"/>
<polygon fill="black" stroke="black" points="447.71,-102.69 458.21,-104.15 450.91,-96.47 447.71,-102.69"/>
</g>
</g>
</svg>
